<svg xmlns="http://www.w3.org/2000/svg" xmlns:xlink="http://www.w3.org/1999/xlink" width="40" zoomAndPan="magnify" viewBox="0 0 30 30.000001" height="40" preserveAspectRatio="xMidYMid meet" version="1.0"><defs><g/><clipPath id="eeec27afd6"><path d="M 5.945312 2.902344 L 24.089844 2.902344 L 24.089844 21.046875 L 5.945312 21.046875 Z M 5.945312 2.902344 " clip-rule="nonzero"/></clipPath></defs><g clip-path="url(#eeec27afd6)"><path fill="#3a5ae9" d="M 23.570312 7.746094 L 18.019531 6.632812 L 18.019531 3.507812 C 18.019531 3.414062 18 3.328125 17.957031 3.246094 C 17.917969 3.164062 17.863281 3.09375 17.792969 3.035156 C 17.722656 2.980469 17.640625 2.941406 17.550781 2.917969 C 17.460938 2.898438 17.375 2.898438 17.285156 2.917969 L 6.417969 5.332031 C 6.277344 5.363281 6.164062 5.433594 6.078125 5.542969 C 5.988281 5.652344 5.945312 5.78125 5.945312 5.921875 L 5.945312 20.410156 C 5.945312 20.578125 6.003906 20.71875 6.121094 20.835938 C 6.238281 20.957031 6.382812 21.015625 6.546875 21.015625 L 23.453125 21.015625 C 23.617188 21.015625 23.761719 20.957031 23.878906 20.835938 C 23.996094 20.71875 24.054688 20.578125 24.054688 20.410156 L 24.054688 8.335938 C 24.054688 8.191406 24.007812 8.066406 23.917969 7.953125 C 23.828125 7.84375 23.710938 7.773438 23.570312 7.746094 Z M 12.585938 19.808594 L 12.585938 14.976562 L 17.414062 14.976562 L 17.414062 19.808594 Z M 22.847656 19.808594 L 18.621094 19.808594 L 18.621094 14.375 C 18.621094 14.207031 18.5625 14.066406 18.445312 13.945312 C 18.328125 13.828125 18.183594 13.769531 18.019531 13.769531 L 11.980469 13.769531 C 11.816406 13.769531 11.671875 13.828125 11.554688 13.945312 C 11.4375 14.066406 11.378906 14.207031 11.378906 14.375 L 11.378906 19.808594 L 7.152344 19.808594 L 7.152344 6.40625 L 16.8125 4.257812 L 16.8125 7.128906 C 16.8125 7.273438 16.855469 7.402344 16.949219 7.511719 C 17.039062 7.621094 17.15625 7.691406 17.296875 7.722656 L 22.847656 8.832031 Z M 22.847656 19.808594 " fill-opacity="1" fill-rule="nonzero"/></g><g fill="#3a5ae9" fill-opacity="1"><g transform="translate(3.157593, 25.239899)"><g><path d="M 1.734375 0 L 1.078125 -0.96875 L 0.796875 -0.96875 L 0.796875 0 L 0.28125 0 L 0.28125 -2.578125 L 1.21875 -2.578125 C 1.550781 -2.578125 1.789062 -2.515625 1.9375 -2.390625 C 2.09375 -2.273438 2.171875 -2.082031 2.171875 -1.8125 C 2.171875 -1.59375 2.125 -1.414062 2.03125 -1.28125 C 1.9375 -1.15625 1.804688 -1.070312 1.640625 -1.03125 L 2.328125 0 Z M 1.640625 -1.78125 C 1.640625 -1.914062 1.601562 -2.003906 1.53125 -2.046875 C 1.46875 -2.097656 1.363281 -2.125 1.21875 -2.125 L 0.796875 -2.125 L 0.796875 -1.4375 L 1.1875 -1.4375 C 1.300781 -1.4375 1.390625 -1.445312 1.453125 -1.46875 C 1.523438 -1.488281 1.570312 -1.519531 1.59375 -1.5625 C 1.625 -1.613281 1.640625 -1.6875 1.640625 -1.78125 Z M 1.640625 -1.78125 "/></g></g></g><g fill="#3a5ae9" fill-opacity="1"><g transform="translate(5.996297, 25.239899)"><g><path d="M 2.375 -1.28125 C 2.375 -0.832031 2.28125 -0.5 2.09375 -0.28125 C 1.90625 -0.0625 1.628906 0.046875 1.265625 0.046875 C 0.890625 0.046875 0.609375 -0.0664062 0.421875 -0.296875 C 0.242188 -0.535156 0.15625 -0.863281 0.15625 -1.28125 C 0.15625 -1.707031 0.242188 -2.035156 0.421875 -2.265625 C 0.609375 -2.503906 0.890625 -2.625 1.265625 -2.625 C 1.648438 -2.625 1.929688 -2.503906 2.109375 -2.265625 C 2.285156 -2.035156 2.375 -1.707031 2.375 -1.28125 Z M 1.84375 -1.28125 C 1.84375 -1.59375 1.796875 -1.816406 1.703125 -1.953125 C 1.617188 -2.097656 1.472656 -2.171875 1.265625 -2.171875 C 1.054688 -2.171875 0.910156 -2.097656 0.828125 -1.953125 C 0.742188 -1.816406 0.703125 -1.59375 0.703125 -1.28125 C 0.703125 -0.976562 0.742188 -0.753906 0.828125 -0.609375 C 0.921875 -0.472656 1.066406 -0.40625 1.265625 -0.40625 C 1.472656 -0.40625 1.617188 -0.472656 1.703125 -0.609375 C 1.796875 -0.753906 1.84375 -0.976562 1.84375 -1.28125 Z M 1.84375 -1.28125 "/></g></g></g><g fill="#3a5ae9" fill-opacity="1"><g transform="translate(8.983852, 25.239899)"><g><path d="M 2.375 -1.28125 C 2.375 -0.832031 2.28125 -0.5 2.09375 -0.28125 C 1.90625 -0.0625 1.628906 0.046875 1.265625 0.046875 C 0.890625 0.046875 0.609375 -0.0664062 0.421875 -0.296875 C 0.242188 -0.535156 0.15625 -0.863281 0.15625 -1.28125 C 0.15625 -1.707031 0.242188 -2.035156 0.421875 -2.265625 C 0.609375 -2.503906 0.890625 -2.625 1.265625 -2.625 C 1.648438 -2.625 1.929688 -2.503906 2.109375 -2.265625 C 2.285156 -2.035156 2.375 -1.707031 2.375 -1.28125 Z M 1.84375 -1.28125 C 1.84375 -1.59375 1.796875 -1.816406 1.703125 -1.953125 C 1.617188 -2.097656 1.472656 -2.171875 1.265625 -2.171875 C 1.054688 -2.171875 0.910156 -2.097656 0.828125 -1.953125 C 0.742188 -1.816406 0.703125 -1.59375 0.703125 -1.28125 C 0.703125 -0.976562 0.742188 -0.753906 0.828125 -0.609375 C 0.921875 -0.472656 1.066406 -0.40625 1.265625 -0.40625 C 1.472656 -0.40625 1.617188 -0.472656 1.703125 -0.609375 C 1.796875 -0.753906 1.84375 -0.976562 1.84375 -1.28125 Z M 1.84375 -1.28125 "/></g></g></g><g fill="#3a5ae9" fill-opacity="1"><g transform="translate(11.971407, 25.239899)"><g><path d="M 2.3125 0 L 2.3125 -1.734375 L 1.703125 -0.65625 L 1.390625 -0.65625 L 0.78125 -1.734375 L 0.78125 0 L 0.28125 0 L 0.28125 -2.578125 L 0.890625 -2.578125 L 1.5625 -1.359375 L 2.234375 -2.578125 L 2.828125 -2.578125 L 2.828125 0 Z M 2.3125 0 "/></g></g></g><g fill="#3a5ae9" fill-opacity="1"><g transform="translate(15.522735, 25.239899)"><g><path d="M 2.3125 0 L 2.3125 -1.734375 L 1.703125 -0.65625 L 1.390625 -0.65625 L 0.78125 -1.734375 L 0.78125 0 L 0.28125 0 L 0.28125 -2.578125 L 0.890625 -2.578125 L 1.5625 -1.359375 L 2.234375 -2.578125 L 2.828125 -2.578125 L 2.828125 0 Z M 2.3125 0 "/></g></g></g><g fill="#3a5ae9" fill-opacity="1"><g transform="translate(19.074062, 25.239899)"><g><path d="M 0.046875 0 L 0.90625 -2.578125 L 1.59375 -2.578125 L 2.4375 0 L 1.90625 0 L 1.734375 -0.515625 L 0.734375 -0.515625 L 0.578125 0 Z M 0.890625 -0.984375 L 1.578125 -0.984375 L 1.234375 -2.046875 Z M 0.890625 -0.984375 "/></g></g></g><g fill="#3a5ae9" fill-opacity="1"><g transform="translate(22.01138, 25.239899)"><g><path d="M 1.390625 -2.09375 L 1.390625 0 L 0.859375 0 L 0.859375 -2.09375 L 0.0625 -2.09375 L 0.0625 -2.578125 L 2.171875 -2.578125 L 2.171875 -2.09375 Z M 1.390625 -2.09375 "/></g></g></g><g fill="#3a5ae9" fill-opacity="1"><g transform="translate(24.701233, 25.239899)"><g><path d="M 0.28125 0 L 0.28125 -2.578125 L 1.953125 -2.578125 L 1.953125 -2.109375 L 0.796875 -2.109375 L 0.796875 -1.5625 L 1.765625 -1.5625 L 1.765625 -1.09375 L 0.796875 -1.09375 L 0.796875 -0.484375 L 1.953125 -0.484375 L 1.953125 0 Z M 0.28125 0 "/></g></g></g></svg>